<svg
  xmlns="http://www.w3.org/2000/svg"
  width="24"
  height="24"
  viewBox="0 0 24 24"
  stroke-width="2"
  stroke="currentColor"
  fill="none"
  stroke-linecap="round"
  stroke-linejoin="round"
>
  <path
    d="m6.072 10.072 2 2 6-4m3.586 4.314.9-.9a2 2 0 0 0 0-2.828l-.9-.9a2 2 0 0 1-.586-1.414V5.072a2 2 0 0 0-2-2H13.8a2 2 0 0 1-1.414-.586l-.9-.9a2 2 0 0 0-2.828 0l-.9.9a2 2 0 0 1-1.414.586H5.072a2 2 0 0 0-2 2v1.272a2 2 0 0 1-.586 1.414l-.9.9a2 2 0 0 0 0 2.828l.9.9a2 2 0 0 1 .586 1.414v1.272a2 2 0 0 0 2 2h1.272a2 2 0 0 1 1.414.586l.9.9a2 2 0 0 0 2.828 0l.9-.9a2 2 0 0 1 1.414-.586h1.272a2 2 0 0 0 2-2V13.8a2 2 0 0 1 .586-1.414Z" />
  <style>
    svg { color: #000; }
    @media (prefers-color-scheme: dark) {
    svg { color: #FFF; }
    }
  </style>
</svg>